<mxfile host="app.diagrams.net" agent="Mozilla/5.0 (Windows NT 10.0; Win64; x64) AppleWebKit/537.36 (KHTML, like Gecko) Chrome/136.0.0.0 Safari/537.36" version="27.0.6">
  <diagram name="第 1 页" id="IsGkAifAaymL5s1E6pn2">
    <mxGraphModel dx="1226" dy="620" grid="1" gridSize="10" guides="1" tooltips="1" connect="1" arrows="1" fold="1" page="1" pageScale="1" pageWidth="827" pageHeight="1169" math="0" shadow="0">
      <root>
        <mxCell id="0" />
        <mxCell id="1" parent="0" />
        <mxCell id="WRWL0OdQ9SYDnA062jXD-10" value="数据治理" style="rounded=0;whiteSpace=wrap;html=1;align=left;" vertex="1" parent="1">
          <mxGeometry x="100" y="40" width="500" height="225" as="geometry" />
        </mxCell>
        <mxCell id="I_psaVGzcSdA9k-5AXr2-1" value="CDM（公共数据层）" style="rounded=0;whiteSpace=wrap;html=1;align=left;" parent="1" vertex="1">
          <mxGeometry x="170" y="90" width="360" height="60" as="geometry" />
        </mxCell>
        <mxCell id="WRWL0OdQ9SYDnA062jXD-16" style="edgeStyle=orthogonalEdgeStyle;rounded=0;orthogonalLoop=1;jettySize=auto;html=1;exitX=0.5;exitY=0;exitDx=0;exitDy=0;" edge="1" parent="1" source="EinJu-5x4WggMxgmagd6-1" target="I_psaVGzcSdA9k-5AXr2-1">
          <mxGeometry relative="1" as="geometry" />
        </mxCell>
        <mxCell id="EinJu-5x4WggMxgmagd6-1" value="ODS（原始数据层）" style="rounded=0;whiteSpace=wrap;html=1;" parent="1" vertex="1">
          <mxGeometry x="290" y="182.5" width="120" height="60" as="geometry" />
        </mxCell>
        <mxCell id="WRWL0OdQ9SYDnA062jXD-1" value="阿里云数仓分层" style="text;html=1;align=center;verticalAlign=middle;whiteSpace=wrap;rounded=0;" vertex="1" parent="1">
          <mxGeometry x="10" y="10" width="60" height="30" as="geometry" />
        </mxCell>
        <mxCell id="WRWL0OdQ9SYDnA062jXD-2" value="" style="rounded=0;whiteSpace=wrap;html=1;" vertex="1" parent="1">
          <mxGeometry x="420" y="105" width="70" height="30" as="geometry" />
        </mxCell>
        <mxCell id="WRWL0OdQ9SYDnA062jXD-13" style="edgeStyle=orthogonalEdgeStyle;rounded=0;orthogonalLoop=1;jettySize=auto;html=1;exitX=0.5;exitY=0;exitDx=0;exitDy=0;entryX=0.5;entryY=1;entryDx=0;entryDy=0;" edge="1" parent="1" source="WRWL0OdQ9SYDnA062jXD-3" target="WRWL0OdQ9SYDnA062jXD-10">
          <mxGeometry relative="1" as="geometry" />
        </mxCell>
        <mxCell id="WRWL0OdQ9SYDnA062jXD-3" value="数据接入" style="rounded=0;whiteSpace=wrap;html=1;align=left;" vertex="1" parent="1">
          <mxGeometry x="100" y="300" width="500" height="60" as="geometry" />
        </mxCell>
        <mxCell id="WRWL0OdQ9SYDnA062jXD-4" value="HTTP" style="rounded=0;whiteSpace=wrap;html=1;" vertex="1" parent="1">
          <mxGeometry x="190" y="315" width="70" height="30" as="geometry" />
        </mxCell>
        <mxCell id="WRWL0OdQ9SYDnA062jXD-7" value="SQL" style="rounded=0;whiteSpace=wrap;html=1;" vertex="1" parent="1">
          <mxGeometry x="285" y="315" width="70" height="30" as="geometry" />
        </mxCell>
        <mxCell id="WRWL0OdQ9SYDnA062jXD-8" value="消息队列" style="rounded=0;whiteSpace=wrap;html=1;" vertex="1" parent="1">
          <mxGeometry x="378.5" y="315" width="70" height="30" as="geometry" />
        </mxCell>
        <mxCell id="WRWL0OdQ9SYDnA062jXD-9" value="消息队列" style="rounded=0;whiteSpace=wrap;html=1;" vertex="1" parent="1">
          <mxGeometry x="470" y="315" width="70" height="30" as="geometry" />
        </mxCell>
        <mxCell id="WRWL0OdQ9SYDnA062jXD-12" style="edgeStyle=orthogonalEdgeStyle;rounded=0;orthogonalLoop=1;jettySize=auto;html=1;exitX=0.5;exitY=0;exitDx=0;exitDy=0;entryX=0.5;entryY=1;entryDx=0;entryDy=0;" edge="1" parent="1" source="WRWL0OdQ9SYDnA062jXD-11" target="WRWL0OdQ9SYDnA062jXD-3">
          <mxGeometry relative="1" as="geometry" />
        </mxCell>
        <mxCell id="WRWL0OdQ9SYDnA062jXD-11" value="业务数据" style="rounded=0;whiteSpace=wrap;html=1;align=left;" vertex="1" parent="1">
          <mxGeometry x="100" y="390" width="500" height="60" as="geometry" />
        </mxCell>
        <mxCell id="WRWL0OdQ9SYDnA062jXD-14" value="业务系统" style="rounded=0;whiteSpace=wrap;html=1;" vertex="1" parent="1">
          <mxGeometry x="315" y="405" width="70" height="30" as="geometry" />
        </mxCell>
        <mxCell id="WRWL0OdQ9SYDnA062jXD-17" value="" style="rounded=0;whiteSpace=wrap;html=1;" vertex="1" parent="1">
          <mxGeometry x="308.5" y="105" width="70" height="30" as="geometry" />
        </mxCell>
      </root>
    </mxGraphModel>
  </diagram>
</mxfile>
